<svg width="18" height="18" viewBox="0 0 18 18" fill="none" xmlns="http://www.w3.org/2000/svg">
<g clip-path="url(#clip0_175_97)">
<path d="M12.75 9.25C12.75 9.641 12.414 9.95833 12 9.95833H6C5.586 9.95833 5.25 9.641 5.25 9.25C5.25 8.859 5.586 8.54167 6 8.54167H12C12.414 8.54167 12.75 8.859 12.75 9.25ZM18 4.29167V14.2083C18 16.1612 16.3177 17.75 14.25 17.75H3.75C1.68225 17.75 0 16.1612 0 14.2083V4.29167C0 2.33879 1.68225 0.75 3.75 0.75H14.25C16.3177 0.75 18 2.33879 18 4.29167ZM16.5 4.29167C16.5 3.12008 15.4905 2.16667 14.25 2.16667H3.75C2.5095 2.16667 1.5 3.12008 1.5 4.29167V14.2083C1.5 15.3799 2.5095 16.3333 3.75 16.3333H14.25C15.4905 16.3333 16.5 15.3799 16.5 14.2083V4.29167Z" fill="#21292E"/>
</g>
<defs>
<clipPath id="clip0_175_97">
<rect width="18" height="17" fill="white" transform="translate(0 0.75)"/>
</clipPath>
</defs>
</svg>
