<svg width="145" height="169" viewBox="0 0 145 169" fill="none" xmlns="http://www.w3.org/2000/svg">
<path d="M141.409 78.2182L119.882 61.8758L107.484 52.4836V22.5789C107.484 10.106 97.3783 0 84.9055 0H22.5788C10.106 0 0 10.106 0 22.5789V145.955C0 158.428 10.106 168.534 22.5788 168.534H84.9055C97.3783 168.534 107.484 158.428 107.484 145.955V116.05L119.882 106.658L141.409 90.3154C145.128 87.5353 145.128 81.0359 141.409 78.2182Z" fill="#DF5E38"/>
<path d="M84.8679 5.25963C94.4104 5.25963 102.187 13.0364 102.187 22.5789V52.4836V55.1134L104.253 56.6913L116.651 66.0835L138.178 82.426C138.591 82.7641 138.892 83.5154 138.892 84.3044C138.892 85.0933 138.591 85.8823 138.178 86.1828L116.651 102.525L104.253 111.917L102.187 113.495V116.125V146.03C102.187 155.572 94.4104 163.349 84.8679 163.349H22.5788C13.0364 163.349 5.25963 155.572 5.25963 146.03V22.5789C5.25963 13.0364 13.0364 5.25963 22.5788 5.25963H84.8679ZM84.8679 0H22.5788C10.106 0 0 10.106 0 22.5789V145.955C0 158.428 10.106 168.534 22.5788 168.534H84.9055C97.3783 168.534 107.484 158.428 107.484 145.955V116.05L119.882 106.658L141.409 90.3154C145.128 87.4977 145.128 80.9983 141.409 78.1807L119.882 61.8383L107.484 52.4461V22.5413C107.484 10.106 97.3783 0 84.8679 0Z" fill="url(#paint0_linear_94_637)"/>
<path d="M29.0974 59.55H25.8224V64.5H22.9724V49.5H28.9974C32.6974 49.5 34.5474 51.175 34.5474 54.55C34.5474 57.4 32.6224 59.55 29.0974 59.55ZM28.7474 51.925H25.8224V57.2H28.7724C30.8724 57.2 31.7474 56.35 31.7474 54.575C31.7474 52.75 30.9724 51.925 28.7474 51.925ZM38.524 48.45V55.85H38.724C39.399 53.675 40.849 52.45 42.874 52.45C45.274 52.45 46.449 54.075 46.449 56.65V64.5H43.774V57.35C43.774 55.925 43.124 54.875 41.549 54.875C39.724 54.875 38.524 56.075 38.524 57.85V64.5H35.849V48.45H38.524ZM51.5052 64.75C49.4052 64.75 47.9302 63.75 47.9302 61.45C47.9302 59.35 49.2052 57.825 52.1802 57.825H55.6802V57.025C55.6802 55.5 55.0302 54.625 53.4052 54.625C52.0552 54.625 51.2302 55.325 50.9302 56.7L48.3802 56.125C48.8552 53.9 50.5052 52.475 53.5052 52.475C56.9052 52.475 58.3552 54.1 58.3552 57V64.5H55.8052V61.7H55.5552C54.9552 63.6 53.5802 64.75 51.5052 64.75ZM55.6802 60.075V59.6H52.6302C51.2552 59.6 50.5052 60.1 50.5052 61.075C50.5052 61.9 51.0302 62.65 52.5552 62.65C54.4302 62.65 55.6802 61.55 55.6802 60.075ZM65.2314 64.825C61.4064 64.825 60.2064 63.25 59.7564 61.025L62.1814 60.525C62.5564 61.925 63.3814 62.85 65.2814 62.85C66.7064 62.85 67.4314 62.35 67.4564 61.35C67.4564 60.425 66.8064 59.975 64.4814 59.55C61.3564 58.95 60.2564 57.85 60.2564 55.925C60.2564 53.8 61.8064 52.45 64.9314 52.45C68.1564 52.45 69.2814 53.775 69.7314 55.85L67.3064 56.375C66.9814 54.9 66.2814 54.375 64.8814 54.375C63.5064 54.375 62.8064 54.85 62.8064 55.775C62.8064 56.6 63.3064 57.175 65.5314 57.575C69.0314 58.225 70.0564 59.375 70.0564 61.25C70.0564 63.425 68.6314 64.825 65.2314 64.825ZM76.8792 64.8C73.2792 64.8 70.9542 62.7 70.9542 58.775C70.9542 54.8 73.2042 52.45 76.8792 52.45C80.4042 52.45 82.1542 54.6 82.1542 57.825C82.1542 58.3 82.1292 58.8 82.1042 59.4H73.6542C73.8542 61.525 74.9292 62.6 76.9042 62.6C78.7792 62.6 79.4292 61.7 79.7542 60.575L82.0542 61.225C81.4792 63.35 80.0542 64.8 76.8792 64.8ZM73.6542 57.6H79.6792C79.5792 55.575 78.6792 54.525 76.8042 54.525C74.9792 54.525 73.9292 55.5 73.6542 57.6Z" fill="white"/>
<path d="M52.9707 86.67C48.4907 86.67 46.5307 89.47 46.1807 94.23L34.4207 92.97C35.2607 83.03 40.3707 76.52 53.1107 76.52C64.3107 76.52 70.6807 80.93 70.6807 91.22C70.6807 99.55 63.4707 103.89 52.9707 105.57C46.8107 106.62 44.4307 107.46 43.8707 109.7C47.5107 109.21 51.9207 108.93 54.6507 108.93H70.4707V119.5H33.2307C33.0907 117.54 33.0207 115.51 33.0207 113.41C33.0207 103.75 37.1507 99.83 46.8807 97.59C57.3107 95.07 58.3607 93.74 58.3607 90.8C58.3607 88.35 56.6807 86.67 52.9707 86.67Z" fill="white"/>
<defs>
<linearGradient id="paint0_linear_94_637" x1="72.086" y1="0.0058983" x2="72.086" y2="168.568" gradientUnits="userSpaceOnUse">
<stop stop-color="white"/>
<stop offset="1" stop-color="white"/>
</linearGradient>
</defs>
</svg>
