<svg width="145" height="169" viewBox="0 0 145 169" fill="none" xmlns="http://www.w3.org/2000/svg">
<path d="M141.409 78.2182L119.882 61.8758L107.484 52.4836V22.5789C107.484 10.106 97.3783 0 84.9055 0H22.5788C10.106 0 0 10.106 0 22.5789V145.955C0 158.428 10.106 168.534 22.5788 168.534H84.9055C97.3783 168.534 107.484 158.428 107.484 145.955V116.05L119.882 106.658L141.409 90.3154C145.128 87.5353 145.128 81.0359 141.409 78.2182Z" fill="#DF5E38"/>
<path d="M84.8679 5.25963C94.4104 5.25963 102.187 13.0364 102.187 22.5789V52.4836V55.1134L104.253 56.6913L116.651 66.0835L138.178 82.426C138.591 82.7641 138.892 83.5154 138.892 84.3044C138.892 85.0933 138.591 85.8823 138.178 86.1828L116.651 102.525L104.253 111.917L102.187 113.495V116.125V146.03C102.187 155.572 94.4104 163.349 84.8679 163.349H22.5788C13.0364 163.349 5.25963 155.572 5.25963 146.03V22.5789C5.25963 13.0364 13.0364 5.25963 22.5788 5.25963H84.8679ZM84.8679 0H22.5788C10.106 0 0 10.106 0 22.5789V145.955C0 158.428 10.106 168.534 22.5788 168.534H84.9055C97.3783 168.534 107.484 158.428 107.484 145.955V116.05L119.882 106.658L141.409 90.3154C145.128 87.4977 145.128 80.9983 141.409 78.1807L119.882 61.8383L107.484 52.4461V22.5413C107.484 10.106 97.3783 0 84.8679 0Z" fill="url(#paint0_linear_104_111)"/>
<path d="M32.0974 59.55H28.8224V64.5H25.9724V49.5H31.9974C35.6974 49.5 37.5474 51.175 37.5474 54.55C37.5474 57.4 35.6224 59.55 32.0974 59.55ZM31.7474 51.925H28.8224V57.2H31.7724C33.8724 57.2 34.7474 56.35 34.7474 54.575C34.7474 52.75 33.9724 51.925 31.7474 51.925ZM41.524 48.45V55.85H41.724C42.399 53.675 43.849 52.45 45.874 52.45C48.274 52.45 49.449 54.075 49.449 56.65V64.5H46.774V57.35C46.774 55.925 46.124 54.875 44.549 54.875C42.724 54.875 41.524 56.075 41.524 57.85V64.5H38.849V48.45H41.524ZM54.5052 64.75C52.4052 64.75 50.9302 63.75 50.9302 61.45C50.9302 59.35 52.2052 57.825 55.1802 57.825H58.6802V57.025C58.6802 55.5 58.0302 54.625 56.4052 54.625C55.0552 54.625 54.2302 55.325 53.9302 56.7L51.3802 56.125C51.8552 53.9 53.5052 52.475 56.5052 52.475C59.9052 52.475 61.3552 54.1 61.3552 57V64.5H58.8052V61.7H58.5552C57.9552 63.6 56.5802 64.75 54.5052 64.75ZM58.6802 60.075V59.6H55.6302C54.2552 59.6 53.5052 60.1 53.5052 61.075C53.5052 61.9 54.0302 62.65 55.5552 62.65C57.4302 62.65 58.6802 61.55 58.6802 60.075ZM68.2314 64.825C64.4064 64.825 63.2064 63.25 62.7564 61.025L65.1814 60.525C65.5564 61.925 66.3814 62.85 68.2814 62.85C69.7064 62.85 70.4314 62.35 70.4564 61.35C70.4564 60.425 69.8064 59.975 67.4814 59.55C64.3564 58.95 63.2564 57.85 63.2564 55.925C63.2564 53.8 64.8064 52.45 67.9314 52.45C71.1564 52.45 72.2814 53.775 72.7314 55.85L70.3064 56.375C69.9814 54.9 69.2814 54.375 67.8814 54.375C66.5064 54.375 65.8064 54.85 65.8064 55.775C65.8064 56.6 66.3064 57.175 68.5314 57.575C72.0314 58.225 73.0564 59.375 73.0564 61.25C73.0564 63.425 71.6314 64.825 68.2314 64.825ZM79.8792 64.8C76.2792 64.8 73.9542 62.7 73.9542 58.775C73.9542 54.8 76.2042 52.45 79.8792 52.45C83.4042 52.45 85.1542 54.6 85.1542 57.825C85.1542 58.3 85.1292 58.8 85.1042 59.4H76.6542C76.8542 61.525 77.9292 62.6 79.9042 62.6C81.7792 62.6 82.4292 61.7 82.7542 60.575L85.0542 61.225C84.4792 63.35 83.0542 64.8 79.8792 64.8ZM76.6542 57.6H82.6792C82.5792 55.575 81.6792 54.525 79.8042 54.525C77.9792 54.525 76.9292 55.5 76.6542 57.6Z" fill="white"/>
<path d="M41.3431 119.5V109H50.7231V89.12C48.6931 90.24 46.4531 91.22 43.3031 92.34L39.4531 82.47L55.6231 77.5H62.6231V109H69.8331V119.5H41.3431Z" fill="white"/>
<defs>
<linearGradient id="paint0_linear_104_111" x1="72.086" y1="0.0058983" x2="72.086" y2="168.568" gradientUnits="userSpaceOnUse">
<stop stop-color="white"/>
<stop offset="1" stop-color="white"/>
</linearGradient>
</defs>
</svg>
