<svg width="145" height="169" viewBox="0 0 145 169" fill="none" xmlns="http://www.w3.org/2000/svg">
<path d="M141.409 78.2182L119.882 61.8758L107.484 52.4836V22.5789C107.484 10.106 97.3783 0 84.9055 0H22.5788C10.106 0 0 10.106 0 22.5789V145.955C0 158.428 10.106 168.534 22.5788 168.534H84.9055C97.3783 168.534 107.484 158.428 107.484 145.955V116.05L119.882 106.658L141.409 90.3154C145.128 87.5353 145.128 81.0359 141.409 78.2182Z" fill="#DF5E38"/>
<path d="M84.8679 5.25963C94.4104 5.25963 102.187 13.0364 102.187 22.5789V52.4836V55.1134L104.253 56.6913L116.651 66.0835L138.178 82.426C138.591 82.7641 138.892 83.5154 138.892 84.3044C138.892 85.0933 138.591 85.8823 138.178 86.1828L116.651 102.525L104.253 111.917L102.187 113.495V116.125V146.03C102.187 155.572 94.4104 163.349 84.8679 163.349H22.5788C13.0364 163.349 5.25963 155.572 5.25963 146.03V22.5789C5.25963 13.0364 13.0364 5.25963 22.5788 5.25963H84.8679ZM84.8679 0H22.5788C10.106 0 0 10.106 0 22.5789V145.955C0 158.428 10.106 168.534 22.5788 168.534H84.9055C97.3783 168.534 107.484 158.428 107.484 145.955V116.05L119.882 106.658L141.409 90.3154C145.128 87.4977 145.128 80.9983 141.409 78.1807L119.882 61.8383L107.484 52.4461V22.5413C107.484 10.106 97.3783 0 84.8679 0Z" fill="url(#paint0_linear_94_649)"/>
<path d="M29.0974 59.8298H25.8224V64.7798H22.9724V49.7798H28.9974C32.6974 49.7798 34.5474 51.4548 34.5474 54.8298C34.5474 57.6798 32.6224 59.8298 29.0974 59.8298ZM28.7474 52.2048H25.8224V57.4798H28.7724C30.8724 57.4798 31.7474 56.6298 31.7474 54.8548C31.7474 53.0298 30.9724 52.2048 28.7474 52.2048ZM38.524 48.7298V56.1298H38.724C39.399 53.9548 40.849 52.7298 42.874 52.7298C45.274 52.7298 46.449 54.3548 46.449 56.9298V64.7798H43.774V57.6298C43.774 56.2048 43.124 55.1548 41.549 55.1548C39.724 55.1548 38.524 56.3548 38.524 58.1298V64.7798H35.849V48.7298H38.524ZM51.5052 65.0298C49.4052 65.0298 47.9302 64.0298 47.9302 61.7298C47.9302 59.6298 49.2052 58.1048 52.1802 58.1048H55.6802V57.3048C55.6802 55.7798 55.0302 54.9048 53.4052 54.9048C52.0552 54.9048 51.2302 55.6048 50.9302 56.9798L48.3802 56.4048C48.8552 54.1798 50.5052 52.7548 53.5052 52.7548C56.9052 52.7548 58.3552 54.3798 58.3552 57.2798V64.7798H55.8052V61.9798H55.5552C54.9552 63.8798 53.5802 65.0298 51.5052 65.0298ZM55.6802 60.3548V59.8798H52.6302C51.2552 59.8798 50.5052 60.3798 50.5052 61.3548C50.5052 62.1798 51.0302 62.9298 52.5552 62.9298C54.4302 62.9298 55.6802 61.8298 55.6802 60.3548ZM65.2314 65.1048C61.4064 65.1048 60.2064 63.5298 59.7564 61.3048L62.1814 60.8048C62.5564 62.2048 63.3814 63.1298 65.2814 63.1298C66.7064 63.1298 67.4314 62.6298 67.4564 61.6298C67.4564 60.7048 66.8064 60.2548 64.4814 59.8298C61.3564 59.2298 60.2564 58.1298 60.2564 56.2048C60.2564 54.0798 61.8064 52.7298 64.9314 52.7298C68.1564 52.7298 69.2814 54.0548 69.7314 56.1298L67.3064 56.6548C66.9814 55.1798 66.2814 54.6548 64.8814 54.6548C63.5064 54.6548 62.8064 55.1298 62.8064 56.0548C62.8064 56.8798 63.3064 57.4548 65.5314 57.8548C69.0314 58.5048 70.0564 59.6548 70.0564 61.5298C70.0564 63.7048 68.6314 65.1048 65.2314 65.1048ZM76.8792 65.0798C73.2792 65.0798 70.9542 62.9798 70.9542 59.0548C70.9542 55.0798 73.2042 52.7298 76.8792 52.7298C80.4042 52.7298 82.1542 54.8798 82.1542 58.1048C82.1542 58.5798 82.1292 59.0798 82.1042 59.6798H73.6542C73.8542 61.8048 74.9292 62.8798 76.9042 62.8798C78.7792 62.8798 79.4292 61.9798 79.7542 60.8548L82.0542 61.5048C81.4792 63.6298 80.0542 65.0798 76.8792 65.0798ZM73.6542 57.8798H79.6792C79.5792 55.8548 78.6792 54.8048 76.8042 54.8048C74.9792 54.8048 73.9292 55.7798 73.6542 57.8798Z" fill="white"/>
<path d="M52.5067 120.48C40.9567 120.48 34.5867 116.77 33.7467 107.18L45.9267 105.92C46.3467 108.93 47.1867 110.82 52.7167 110.82C56.6367 110.82 58.3167 109.35 58.3167 106.83C58.3167 104.31 57.0567 103.05 53.0667 103.05H45.9967V94.7198H53.1367C56.4267 94.7198 57.6167 93.8098 57.6167 91.0798C57.6167 88.0698 56.0767 86.8798 52.4367 86.8798C47.6067 86.8798 46.7667 88.8398 46.4867 91.9898L34.8667 91.0798C35.7767 82.3298 40.8167 77.0798 52.3667 77.0798C64.4067 77.0798 69.1667 80.9298 69.1667 88.4898C69.1667 94.1598 65.5267 97.0998 59.0167 98.2898V99.1998C67.7667 99.9698 70.6367 102.7 70.6367 108.51C70.6367 115.58 65.5267 120.48 52.5067 120.48Z" fill="white"/>
<defs>
<linearGradient id="paint0_linear_94_649" x1="72.086" y1="0.0058983" x2="72.086" y2="168.568" gradientUnits="userSpaceOnUse">
<stop stop-color="white"/>
<stop offset="1" stop-color="white"/>
</linearGradient>
</defs>
</svg>
