<svg width="18" height="18" viewBox="0 0 18 18" fill="none" xmlns="http://www.w3.org/2000/svg">
<path d="M12.75 9C12.75 9.41475 12.414 9.75 12 9.75H9.75V12C9.75 12.4147 9.414 12.75 9 12.75C8.586 12.75 8.25 12.4147 8.25 12V9.75H6C5.586 9.75 5.25 9.41475 5.25 9C5.25 8.58525 5.586 8.25 6 8.25H8.25V6C8.25 5.58525 8.586 5.25 9 5.25C9.414 5.25 9.75 5.58525 9.75 6V8.25H12C12.414 8.25 12.75 8.58525 12.75 9ZM18 3.75V14.25C18 16.3177 16.3177 18 14.25 18H3.75C1.68225 18 0 16.3177 0 14.25V3.75C0 1.68225 1.68225 0 3.75 0H14.25C16.3177 0 18 1.68225 18 3.75ZM16.5 3.75C16.5 2.5095 15.4905 1.5 14.25 1.5H3.75C2.5095 1.5 1.5 2.5095 1.5 3.75V14.25C1.5 15.4905 2.5095 16.5 3.75 16.5H14.25C15.4905 16.5 16.5 15.4905 16.5 14.25V3.75Z" fill="#21292E"/>
</svg>
